<svg width="140" height="37" viewBox="0 0 140 37" fill="none" xmlns="http://www.w3.org/2000/svg">
<path d="M18.3024 13.926H24.3824V0.929998H30.4624V35.168H25.7124C24.8384 35.168 24.3824 34.674 24.3824 33.762V16.168H18.3024V13.926ZM0.89844 30.95H0.86044C6.37044 26.39 8.42244 20.728 8.42244 10.354V1.728H14.8064V8.72C14.8064 20.728 16.5544 25.63 22.3304 30.19L21.0004 31.862C17.0484 29.582 13.1724 25.174 11.7284 21.298C10.1704 25.858 5.61044 31.064 1.96244 32.47L0.89844 30.95ZM50.3311 20.348V17.346H38.7791V15.104H68.7231V17.346H57.1711V20.348H66.2151V28.708H47.8611V32.812H66.6331V35.054H42.8451C41.6671 35.054 41.2491 34.598 41.2491 33.344V26.428H59.6031V22.59H41.2491V20.348H50.3311ZM40.8691 7.048C40.8691 2.906 45.6571 0.397998 53.7131 0.397998C61.7311 0.397998 66.5571 2.906 66.5571 7.048C66.5571 11.228 61.7311 13.698 53.7131 13.698C45.6571 13.698 40.8691 11.228 40.8691 7.048ZM47.1011 7.048C47.1011 9.974 49.4571 11.57 53.7131 11.57C57.9311 11.57 60.3251 9.974 60.3251 7.048C60.3251 4.16 57.9311 2.526 53.7131 2.526C49.4571 2.526 47.1011 4.16 47.1011 7.048ZM97.9683 19.93C96.8663 19.93 96.4863 19.55 96.4863 18.448V14.724H91.8123V18.676H74.6743V1.728H80.7163V7.732H85.9603V1.728H91.8123V5.756H96.4863V0.891999H102.68V19.93H97.9683ZM78.7403 28.556C78.7403 23.806 83.3003 20.88 90.7863 20.88C98.2343 20.88 102.87 23.806 102.87 28.556C102.87 33.344 98.2343 36.232 90.7863 36.232C83.3003 36.232 78.7403 33.344 78.7403 28.556ZM80.7163 16.434H85.9603V10.012H80.7163V16.434ZM84.9343 28.556C84.9343 32.394 86.8723 34.332 90.7863 34.332C94.6623 34.332 96.6763 32.394 96.6763 28.556C96.6763 24.756 94.7003 22.818 90.7863 22.818C86.8723 22.818 84.9343 24.756 84.9343 28.556ZM91.8123 12.786H96.4863V7.656H91.8123V12.786ZM121.067 3.172C118.863 3.172 117.685 4.806 117.685 7.732C117.685 10.696 118.863 12.292 121.067 12.292C123.309 12.292 124.639 10.658 124.639 7.732C124.639 4.806 123.347 3.172 121.067 3.172ZM110.655 18.334V16.054H131.669V18.334H122.929V23.844H118.293C117.153 23.844 116.697 23.35 116.697 22.134V18.334H110.655ZM111.643 7.732C111.643 3.514 114.987 1.12 121.067 1.12C127.109 1.12 130.491 3.514 130.491 7.732C130.491 12.026 127.147 14.344 121.067 14.344C114.949 14.344 111.643 12.026 111.643 7.732ZM114.683 33.23V25.212H121.295V32.812H139.801V35.054H116.279C115.139 35.054 114.683 34.522 114.683 33.23ZM126.767 22.4V20.158H133.379V0.739998H139.611V26.96H134.975C133.721 26.96 133.379 26.656 133.379 25.516V22.4H126.767Z" fill="#FAFAFA"/>
</svg>
