<svg width="48" height="48" viewBox="0 0 48 48" fill="none" xmlns="http://www.w3.org/2000/svg">
<rect width="48" height="48" fill="#181818"/>
<path d="M7.80742 21.7977C7.48977 21.6457 7.18868 21.5842 6.90414 21.6131C6.4445 21.6597 5.9485 21.7838 5.41613 21.9853L4.83962 22.1876C4.66896 22.2491 4.53621 22.2847 4.44137 22.2944C4.22249 22.3166 4.10491 22.2474 4.08861 22.0869C4.07898 21.9921 4.14738 21.8672 4.29381 21.7123C4.4322 21.5508 4.62606 21.3911 4.87537 21.2331C5.4921 20.8461 6.17984 20.6141 6.93861 20.5371C8.02568 20.4267 8.74133 20.542 9.08554 20.8829C9.18346 20.9762 9.24168 21.114 9.2602 21.2964C9.31748 22.0056 9.18031 23.9212 8.84872 27.0434C9.67406 26.6058 10.1701 26.2642 10.3368 26.0188C10.5108 25.7726 10.6526 25.644 10.762 25.6329C10.8714 25.6218 10.9376 25.7293 10.9606 25.9555C10.9836 26.1816 10.9343 26.3856 10.8127 26.5675C10.6984 26.7487 10.5061 26.9598 10.2357 27.2011C9.97269 27.4415 9.47481 27.7648 8.74209 28.1709C8.71336 28.4687 8.63689 28.8045 8.51268 29.1783C8.11886 30.7441 7.30181 31.5899 6.06152 31.7159C5.45597 31.7774 4.92828 31.6983 4.47845 31.4786C4.02862 31.2589 3.77592 30.8755 3.72035 30.3283C3.70035 30.1313 3.7836 29.9349 3.9701 29.7391C4.1493 29.544 4.42224 29.3283 4.78892 29.092C5.14904 28.8638 5.86357 28.4964 6.93253 27.9898C6.95037 27.73 6.96277 27.4892 6.96973 27.2674C6.97595 27.0382 6.98914 26.8416 7.00932 26.6773C7.05659 25.6185 7.23452 24.3584 7.54313 22.8971C7.63371 22.4825 7.7218 22.116 7.80742 21.7977ZM5.22382 30.7616C5.45455 30.8561 5.66841 30.8934 5.8654 30.8734C6.06313 30.8607 6.20824 30.8017 6.30075 30.6965C6.394 30.5986 6.48862 30.4415 6.58461 30.2254C6.6879 30.0085 6.77197 29.6388 6.83684 29.1163C6.4708 29.2861 6.15725 29.4285 5.89619 29.5435C5.64243 29.6577 5.43536 29.7598 5.27496 29.8498C5.12186 29.9391 5.01217 30.0202 4.94588 30.0933C4.87229 30.1671 4.84032 30.2514 4.84995 30.3463C4.86847 30.5287 4.9931 30.6671 5.22382 30.7616ZM17.0374 24.9624C17.1687 24.9491 17.2514 25.1102 17.2855 25.4458C17.304 25.6282 17.25 25.8585 17.1234 26.1367C16.9962 26.4077 16.8196 26.6651 16.5938 26.9092C16.3745 27.1452 16.1223 27.3478 15.8373 27.5167C15.5522 27.6857 15.2674 27.7847 14.9829 27.8136C14.5962 27.8529 14.3028 27.5399 14.1026 26.8747C13.9447 27.2077 13.723 27.4919 13.4373 27.7273C13.1509 27.9554 12.7487 28.0958 12.2306 28.1484C11.7199 28.2002 11.2914 28.0816 10.9451 27.7924C10.5988 27.5033 10.4059 27.1285 10.3666 26.6681C10.2406 25.4278 10.5535 24.4083 11.3054 23.6096C11.6252 23.2749 11.9298 23.045 12.2193 22.9197C12.5161 22.7938 12.8323 22.7138 13.1679 22.6797C13.5035 22.6456 13.7831 22.6762 14.0065 22.7714C14.0872 22.5495 14.1931 22.4318 14.3245 22.4185C14.5798 22.3926 14.8321 22.4812 15.0812 22.6844C15.3369 22.8796 15.4748 23.0757 15.4948 23.2726C15.4171 23.5238 15.2968 23.8271 15.1339 24.1828C15.1096 24.5243 15.1282 24.9978 15.1897 25.6034C15.2512 26.2089 15.3585 26.5039 15.5117 26.4884C15.7014 26.4691 16.1225 26.0431 16.7751 25.2102C16.8916 25.051 16.979 24.9684 17.0374 24.9624ZM11.9386 26.1436C11.9957 26.7054 12.2321 26.9652 12.648 26.9229C13.0923 26.8704 13.4366 26.5959 13.6811 26.0993C13.7669 25.9285 13.8308 25.723 13.8728 25.4828C13.7898 24.6657 13.7916 23.9579 13.8782 23.3594C13.2991 23.5361 12.8137 23.8729 12.4219 24.3697C12.0301 24.8665 11.869 25.4578 11.9386 26.1436ZM21.0322 24.5568C21.1635 24.5434 21.2406 24.6498 21.2636 24.876C21.2858 25.0949 21.2515 25.3379 21.1607 25.6051C21.0772 25.8716 20.931 26.1371 20.722 26.4015C20.5195 26.658 20.248 26.8882 19.9076 27.0924C19.5671 27.2965 19.1525 27.4233 18.6637 27.473C18.1821 27.5219 17.7445 27.4226 17.3509 27.1751C16.9564 26.9203 16.7318 26.523 16.677 25.9831C16.6214 25.4359 16.6553 24.9349 16.7787 24.4801C16.9086 24.0173 17.0958 23.6113 17.3405 23.2621C17.5924 22.9122 17.8882 22.6315 18.228 22.4201C18.5669 22.2014 18.8969 22.0758 19.2179 22.0432C19.7797 21.9861 20.0832 22.1801 20.1284 22.6252C20.1543 22.8805 20.1204 23.0904 20.0265 23.2547C19.9399 23.4183 19.8419 23.5056 19.7324 23.5168C19.5865 23.5316 19.4537 23.4935 19.3339 23.4024C19.214 23.3114 19.0885 23.2726 18.9572 23.2859C18.8251 23.2919 18.7037 23.3669 18.593 23.5108C18.4896 23.654 18.4082 23.8318 18.3487 24.0443C18.2296 24.4691 18.1979 24.9551 18.2535 25.5023C18.2874 25.7642 18.4278 25.949 18.6746 26.0566C18.844 26.1279 19.0385 26.156 19.2582 26.1411C19.477 26.1189 19.6776 26.0248 19.8597 25.8589C20.0492 25.6922 20.2193 25.5165 20.3701 25.3316C20.5201 25.1395 20.6497 24.9642 20.7589 24.8056C20.8754 24.6464 20.9665 24.5634 21.0322 24.5568ZM23.899 24.4536C24.1753 25.2142 24.5468 25.5709 25.0138 25.5234C25.24 25.5005 25.4372 25.4104 25.6055 25.2533C25.7738 25.0961 25.9228 24.9299 26.0524 24.7546C26.1813 24.572 26.2934 24.4058 26.3888 24.256C26.4841 24.1063 26.5792 24.0266 26.6741 24.017C26.7689 24.0074 26.8289 24.1266 26.8541 24.3746C26.9067 24.8926 26.7167 25.4169 26.2841 25.9473C25.8515 26.4777 25.3357 26.7696 24.7367 26.8231C24.1457 26.8831 23.5638 26.4152 22.9909 25.4193C22.8299 25.1408 22.6759 24.8579 22.5288 24.5706L22.6044 26.0777C22.6185 26.2163 22.6253 26.3557 22.6248 26.4958C22.6235 26.6286 22.5726 26.7443 22.4721 26.843C22.2105 27.098 21.9338 27.2404 21.642 27.27C21.2991 27.3049 21.0917 26.9684 21.0198 26.2607C20.9161 25.2393 20.9279 24.1583 21.0554 23.0175C21.1828 21.8768 21.331 21.0141 21.5001 20.4294C21.6758 19.8366 21.816 19.439 21.9208 19.2368C22.0329 19.0337 22.1232 18.9066 22.1917 18.8554C22.2602 18.8043 22.3382 18.7742 22.4258 18.7653C22.5206 18.7557 22.6239 18.7931 22.7357 18.8776C22.8467 18.9548 22.9702 19.0823 23.1062 19.2601C23.2415 19.4307 23.3184 19.6071 23.3369 19.7895C23.362 19.9639 23.3506 20.1419 23.3027 20.3237C23.2614 20.4974 23.1982 20.6734 23.1131 20.8516C23.0272 21.0225 22.9312 21.2017 22.8249 21.3894C22.7179 21.5698 22.6124 21.7648 22.5084 21.9744L22.4923 22.9048C22.6936 22.3463 23.033 21.9506 23.5106 21.7178C23.679 21.6344 23.88 21.5808 24.1135 21.5571C24.5804 21.5097 24.9494 21.5865 25.2204 21.7875C25.4907 21.9811 25.6477 22.2932 25.6914 22.7237C25.7351 23.1541 25.5569 23.5408 25.1568 23.8836C24.7568 24.2264 24.3375 24.4164 23.899 24.4536ZM24.1848 23.131C24.1582 22.8683 23.9953 22.7522 23.6961 22.7825C23.397 22.8129 23.1016 23.1341 22.8099 23.746C22.7248 23.9242 22.6547 24.1045 22.5995 24.287C23.3538 24.1662 23.8511 23.9093 24.0913 23.5164C24.167 23.3908 24.1982 23.2623 24.1848 23.131ZM28.4828 21.0581C28.9709 21.0012 29.3449 21.0553 29.605 21.2206C29.8643 21.3785 30.0117 21.6326 30.0472 21.9828C30.0821 22.3257 30.0063 22.6319 29.8199 22.9015C29.6401 23.163 29.4058 23.36 29.117 23.4925C29.3508 23.6899 29.5631 23.8932 29.7539 24.1023C29.9519 24.3107 30.0636 24.5389 30.0888 24.7869C30.1384 25.2758 29.9836 25.6748 29.6243 25.984C29.2643 26.2859 28.7378 26.4721 28.0447 26.5424C27.3589 26.6121 26.8308 26.5294 26.4605 26.2942C26.0894 26.0518 25.8865 25.7591 25.8517 25.4162C25.8161 25.066 25.8678 24.7402 26.0067 24.4386C26.1529 24.1363 26.3245 23.9751 26.5215 23.9551C26.6382 23.9432 26.7265 23.9785 26.7865 24.0609C26.8457 24.1359 26.965 24.3671 27.1444 24.7543C27.2103 24.895 27.3083 25.0251 27.4383 25.1446C27.7387 25.4163 28.1806 25.5225 28.7643 25.4632C28.6486 25.1949 28.4823 24.9722 28.2653 24.7952C28.0548 24.6102 27.8451 24.4325 27.6362 24.262C27.4272 24.0916 27.239 23.908 27.0716 23.7113C26.9035 23.5072 26.8046 23.2593 26.775 22.9674C26.7216 22.4421 26.8753 21.9953 27.2359 21.627C27.5784 21.2974 27.994 21.1078 28.4828 21.0581ZM28.6446 23.0872C28.9046 22.7438 29.025 22.4773 29.0057 22.2876C28.9968 22.2 28.9562 22.1268 28.8839 22.0678C28.8181 22.0007 28.7268 21.9731 28.6101 21.985C28.4934 21.9969 28.3818 22.0229 28.2753 22.0632C28.1761 22.1028 28.0944 22.1332 28.0303 22.1545C28.0584 22.4317 28.2632 22.7426 28.6446 23.0872ZM35.2448 24.783C34.7373 25.5201 34.0787 25.9297 33.2688 26.0119C32.4663 26.0934 31.8436 25.9503 31.4009 25.5825C30.9574 25.2073 30.7082 24.713 30.6532 24.0994C30.5578 23.2319 30.7554 22.4563 31.2462 21.7726C31.7369 21.0888 32.431 20.7014 33.3284 20.6103C33.737 20.5688 34.0705 20.5865 34.3289 20.6635C34.7771 20.7949 35.009 20.9372 35.0246 21.0904C35.0364 21.2071 34.74 21.2999 34.1352 21.3687C33.5369 21.4294 33.0546 21.6885 32.6883 22.1458C32.3285 22.5951 32.1805 23.1335 32.2442 23.7609C32.2775 24.0892 32.4005 24.3569 32.6132 24.5638C32.8324 24.7626 33.1171 24.8443 33.4673 24.8087C33.8248 24.7724 34.1129 24.6695 34.3315 24.4998C33.7779 24.2022 33.4674 23.7215 33.4 23.0576C33.3572 22.7081 33.449 22.3781 33.6754 22.0677C33.9084 21.7492 34.2256 21.5695 34.6268 21.5288C35.0347 21.48 35.3376 21.5598 35.5357 21.7682C35.7338 21.9766 35.8509 22.2595 35.8872 22.617C35.9228 22.9672 35.8767 23.3478 35.7489 23.7588L35.8146 23.7522C36.1348 23.7123 36.4006 23.571 36.6118 23.3285C36.6905 23.232 36.7557 23.148 36.8074 23.0764C36.8664 23.0041 36.9287 22.9646 36.9943 22.9579C37.0965 22.9475 37.1598 23.0627 37.1842 23.3035C37.2294 23.7485 37.1322 24.0975 36.8925 24.3503C36.6521 24.5959 36.3714 24.735 36.0503 24.7675C35.7366 24.7994 35.4681 24.8046 35.2448 24.783ZM35.0174 23.5235C35.1147 23.2483 35.1508 22.9866 35.1256 22.7386C35.1004 22.4905 35.0076 22.3747 34.8471 22.391C34.7814 22.3976 34.7315 22.4506 34.6974 22.5499C34.6632 22.6492 34.6506 22.7426 34.6595 22.8302C34.6891 23.122 34.8084 23.3531 35.0174 23.5235ZM37.761 19.9501C38.0237 19.9234 38.2973 20.1499 38.5819 20.6296C38.8885 20.2373 39.2935 20.0156 39.7969 19.9645C40.3076 19.9126 40.7021 19.9868 40.9805 20.187C41.258 20.38 41.4176 20.6807 41.4591 21.0893C41.4998 21.4906 41.4866 21.9047 41.4194 22.3317C41.3595 22.7579 41.3132 23.0648 41.2807 23.2524C41.2547 23.4319 41.2476 23.5801 41.2595 23.6968C41.2713 23.8135 41.3174 23.8678 41.3976 23.8597C41.5071 23.8486 41.635 23.7655 41.7814 23.6106C41.9279 23.4557 42.0732 23.2898 42.2174 23.113C42.3609 22.9289 42.4912 22.7609 42.6085 22.6089C42.733 22.4562 42.8208 22.3773 42.8719 22.3721C42.974 22.3617 43.0377 22.4806 43.0629 22.7286C43.1148 23.2393 42.9131 23.7574 42.4578 24.2827C41.6619 24.8648 41.1472 25.1677 40.9137 25.1914C40.8918 25.1936 40.8769 25.1914 40.8688 25.1849C40.2852 25.2441 39.9459 24.8068 39.8511 23.873C39.8103 23.4717 39.8094 23.0996 39.8483 22.7566C39.8944 22.4128 39.928 22.1625 39.9489 22.0055C39.9698 21.8486 39.9721 21.6899 39.9558 21.5294C39.9292 21.2668 39.7626 21.151 39.4562 21.1821C39.1571 21.2125 38.8918 21.4679 38.6605 21.9484C38.4358 22.4209 38.3004 22.9027 38.2545 23.3938L38.2623 23.4704C38.2875 23.7185 38.3499 23.9701 38.4495 24.2254C38.5564 24.4799 38.6151 24.6582 38.6254 24.7603C38.6506 25.0084 38.3654 25.2843 37.7697 25.588C37.6786 25.6342 37.5965 25.6609 37.5235 25.6683C37.3411 25.6868 37.2038 25.605 37.1116 25.4227C37.0267 25.2397 36.9639 24.9475 36.9231 24.5462C36.8179 23.5102 36.7821 22.7583 36.8157 22.2906C36.8555 21.5936 37.0387 20.9301 37.3654 20.2998C37.4759 20.0822 37.6078 19.9656 37.761 19.9501Z" fill="#F8F8F8"/>
</svg>
